<?xml version="1.0" encoding="UTF-8"?>
<!-- Generator: https://ezgif.com/webp-to-svg -->
<svg version="1.1" xmlns="http://www.w3.org/2000/svg" width="743" height="633">
<path d="M0 0 C1.09 -0 1.09 -0 2.21 -0 C25.74 0.05 48.03 3.91 69.62 13.38 C71.38 14.09 71.38 14.09 73.17 14.82 C79.35 17.35 84.94 19.97 90.38 23.85 C94.59 26.71 99.13 29.01 103.62 31.38 C103.62 32.03 103.62 32.69 103.62 33.38 C104.18 33.63 104.73 33.89 105.3 34.15 C112.75 38.07 119.14 43.59 124.93 49.64 C126.69 51.51 126.69 51.51 129.19 53.38 C132.78 56.32 135.62 59.85 138.62 63.38 C139.85 64.75 141.08 66.13 142.31 67.5 C144.38 69.85 146.24 72.18 147.94 74.81 C149.37 77.46 149.37 77.46 151.62 78.38 C152.77 80.2 152.77 80.2 154 82.5 C155.6 85.47 157.22 88.41 158.94 91.31 C160.62 94.38 160.62 94.38 160.62 96.38 C161.29 96.38 161.94 96.38 162.62 96.38 C163.95 99.22 165.26 102.08 166.56 104.94 C166.94 105.74 167.31 106.54 167.69 107.36 C169.84 112.1 171.19 116.18 171.62 121.38 C172.29 121.38 172.94 121.38 173.62 121.38 C179.27 141.9 182.87 161.52 182.94 182.88 C182.94 183.69 182.94 184.51 182.95 185.35 C182.95 199.67 181.73 213.37 178.62 227.38 C178.46 228.12 178.3 228.87 178.14 229.64 C176.07 239.07 172.57 247.6 168.62 256.38 C167.26 259.7 165.94 263.03 164.62 266.38 C163.96 268.04 163.29 269.71 162.62 271.38 C161.96 271.38 161.31 271.38 160.62 271.38 C160.4 272.01 160.17 272.65 159.94 273.31 C158.14 277.51 155.89 281.41 153.62 285.38 C153.11 286.3 152.59 287.23 152.06 288.19 C150.62 290.38 150.62 290.38 148.78 292.21 C146.58 294.42 144.68 296.73 142.75 299.19 C136.06 307.62 136.06 307.62 132.62 311.38 C131.96 311.38 131.31 311.38 130.62 311.38 C130.39 311.95 130.15 312.53 129.9 313.12 C128.37 315.82 126.6 317.41 124.25 319.44 C123.48 320.11 122.71 320.78 121.91 321.47 C116.02 326.38 116.02 326.38 113.62 326.38 C113.3 327.37 112.96 328.36 112.62 329.38 C110.3 331.1 108 332.69 105.56 334.25 C104.53 334.92 104.53 334.92 103.48 335.61 C102.12 336.49 100.77 337.36 99.41 338.23 C98.02 339.12 96.65 340.02 95.27 340.93 C92.48 342.75 89.77 344.31 86.73 345.69 C79.51 348.97 74.21 352.09 70.62 359.38 C69.24 364 68.37 368.61 67.62 373.38 C67.42 374.32 67.21 375.26 66.99 376.23 C66.87 376.94 66.75 377.65 66.62 378.38 C66.95 378.7 67.29 379.04 67.62 379.38 C67.73 381.96 67.76 384.51 67.76 387.09 C67.76 388.25 67.76 388.25 67.76 389.44 C67.76 391.07 67.76 392.71 67.76 394.35 C67.75 396.86 67.76 399.38 67.76 401.89 C67.76 403.48 67.76 405.07 67.76 406.66 C67.76 407.41 67.76 408.17 67.76 408.95 C67.74 414.26 67.74 414.26 66.62 415.38 C66.37 419.41 66.44 423.46 66.44 427.5 C66.43 428.63 66.41 429.76 66.4 430.92 C66.39 436.83 66.61 441.81 68.62 447.38 C68.92 448.33 69.22 449.28 69.52 450.25 C72.61 459.27 76.05 464 84.62 468.38 C84.62 469.04 84.62 469.69 84.62 470.38 C98.62 474.92 110.54 474.77 124.62 471.38 C126.29 471.03 127.96 470.7 129.62 470.38 C129.62 469.71 129.62 469.06 129.62 468.38 C130.72 467.86 131.82 467.34 132.95 466.8 C134.4 466.1 135.86 465.39 137.31 464.69 C138.03 464.35 138.75 464.01 139.5 463.66 C144.01 461.46 147.25 459.18 150.62 455.38 C151.13 454.82 151.63 454.27 152.14 453.71 C152.57 453.21 153 452.7 153.44 452.19 C153.94 451.6 154.45 451 154.96 450.39 C156.17 448.93 157.34 447.45 158.5 445.95 C170.12 430.97 170.12 430.97 178.34 429.45 C185.24 429.22 193 430.27 198.38 434.88 C199.62 436.38 199.62 436.38 199.62 438.38 C200.29 438.38 200.94 438.38 201.62 438.38 C205.84 445.72 207.27 451.87 206.06 460.31 C203.75 468.01 199.6 475.02 193.62 480.38 C192.84 481.34 192.06 482.31 191.25 483.31 C188.44 486.74 185.24 489.81 181.62 492.38 C180.96 492.38 180.31 492.38 179.62 492.38 C179.3 493.37 178.96 494.36 178.62 495.38 C177.08 496.57 177.08 496.57 175.09 497.71 C174 498.35 174 498.35 172.88 499 C171.74 499.65 171.74 499.65 170.56 500.31 C169.82 500.74 169.08 501.17 168.32 501.62 C166.1 502.89 163.87 504.14 161.62 505.38 C161 505.73 160.37 506.09 159.73 506.46 C153.79 509.66 147.49 511.28 141 513 C138.8 513.6 136.6 514.19 134.4 514.79 C133.43 515.05 132.47 515.3 131.47 515.57 C128.59 516.34 128.59 516.34 125.73 517.45 C119.49 519.31 112.78 518.81 106.31 518.81 C105.54 518.81 104.78 518.81 103.99 518.82 C92.4 518.79 82.4 517.92 71.62 513.38 C70.2 512.83 68.78 512.28 67.36 511.74 C58.71 508.42 58.71 508.42 54.62 506.38 C54.62 505.71 54.62 505.06 54.62 504.38 C53.91 504.11 53.19 503.85 52.45 503.57 C39.94 498.25 30.58 486.69 25.12 474.44 C20.02 458.29 20.17 442.3 20.19 425.51 C20.19 423.51 20.18 421.5 20.18 419.49 C20.17 413.21 20.17 406.93 20.18 400.65 C20.19 394.2 20.18 387.75 20.15 381.31 C20.13 375.73 20.12 370.16 20.13 364.58 C20.13 361.27 20.13 357.96 20.11 354.64 C20.1 350.95 20.11 347.26 20.12 343.57 C20.11 341.95 20.11 341.95 20.09 340.31 C20.17 331.97 21.78 323.78 26.88 316.96 C30.2 313.83 33.52 311.98 37.62 310.06 C38.32 309.72 39.02 309.37 39.74 309.01 C43.34 307.27 46.62 305.91 50.62 305.38 C50.62 304.71 50.62 304.06 50.62 303.38 C53.19 302.08 55.75 300.79 58.31 299.5 C59.03 299.14 59.75 298.77 60.5 298.39 C64.16 296.56 67.79 294.81 71.62 293.38 C71.62 292.71 71.62 292.06 71.62 291.38 C73.66 289.86 75.69 288.45 77.81 287.06 C82.23 284.17 85.98 281.25 89.62 277.38 C90.09 276.89 90.56 276.41 91.04 275.91 C99.82 266.78 106.64 257.57 112.62 246.38 C113.29 246.38 113.94 246.38 114.62 246.38 C114.71 245.74 114.79 245.1 114.88 244.44 C115.52 241.8 116.29 239.81 117.44 237.38 C120.12 231.57 121.85 225.5 123.62 219.38 C124.29 219.38 124.94 219.38 125.62 219.38 C125.84 217.6 126.06 215.83 126.27 214.06 C126.52 212.14 126.82 210.22 127.14 208.31 C131.91 177.97 127.24 146.14 111.62 119.38 C111.17 118.58 110.71 117.79 110.23 116.98 C102.42 104.32 92.85 90.99 80.34 82.62 C78.62 81.37 78.62 81.37 76.86 79.49 C73.98 76.76 70.83 75.02 67.38 73.12 C66.73 72.76 66.08 72.4 65.41 72.02 C63.82 71.13 62.22 70.25 60.62 69.38 C60.62 68.72 60.62 68.06 60.62 67.38 C59.43 66.98 58.23 66.59 57 66.19 C52.84 64.81 48.74 63.32 44.62 61.81 C39.98 60.14 35.45 58.71 30.59 57.83 C28.62 57.38 28.62 57.38 26.33 56.39 C9.44 50.03 -11.98 53.36 -29.38 55.38 C-29.38 56.03 -29.38 56.69 -29.38 57.38 C-30.34 57.58 -31.31 57.79 -32.31 58 C-46.21 61.13 -58.33 66.41 -70.62 73.56 C-71.34 73.98 -72.06 74.39 -72.79 74.82 C-76.47 77.03 -79.42 79.23 -82.38 82.38 C-84.87 84.38 -87.4 86.33 -89.94 88.28 C-92.46 90.45 -94.35 92.74 -96.38 95.38 C-97.14 96.12 -97.9 96.86 -98.69 97.62 C-108.93 108.11 -115.78 120.95 -121.38 134.38 C-122.03 134.38 -122.69 134.38 -123.38 134.38 C-123.81 136.36 -124.24 138.34 -124.67 140.32 C-125.19 142.56 -125.75 144.8 -126.33 147.02 C-134.81 179.8 -132.23 213.23 -116.38 243.38 C-112.53 250.9 -112.53 250.9 -111.38 254.38 C-110.72 254.38 -110.06 254.38 -109.38 254.38 C-108.84 255.55 -108.3 256.73 -107.75 257.94 C-100.72 270.62 -87.4 283.35 -74.81 290.37 C-74.34 290.7 -73.86 291.03 -73.38 291.38 C-73.38 292.04 -73.38 292.69 -73.38 293.38 C-72.66 293.65 -71.94 293.92 -71.21 294.2 C-68.36 295.38 -65.75 296.74 -63.06 298.24 C-62.05 298.8 -61.03 299.35 -59.99 299.93 C-57.9 301.09 -55.81 302.25 -53.72 303.41 C-47.61 306.77 -41.55 309.66 -35.01 312.1 C-30.37 314.35 -26.98 317.97 -24.38 322.38 C-21.89 329.61 -21.92 336.97 -21.75 344.56 C-21.72 345.63 -21.72 345.63 -21.69 346.72 C-20.93 376.74 -20.96 406.85 -21.75 436.88 C-21.78 438.18 -21.81 439.49 -21.84 440.84 C-22.21 452.4 -23.66 463.4 -27.38 474.38 C-28.03 474.38 -28.69 474.38 -29.38 474.38 C-29.53 475.18 -29.53 475.18 -29.69 476 C-31.36 481.76 -34.6 486.29 -38.44 490.81 C-38.92 491.38 -39.4 491.94 -39.89 492.53 C-44.09 497.34 -48.72 501.33 -54.38 504.38 C-55.03 504.38 -55.69 504.38 -56.38 504.38 C-56.38 505.04 -56.38 505.69 -56.38 506.38 C-65.11 510.09 -73.72 513.21 -82.94 515.52 C-85.2 516.08 -87.44 516.71 -89.66 517.41 C-95.81 519.01 -101.99 518.77 -108.31 518.75 C-109.01 518.75 -109.71 518.75 -110.42 518.75 C-120.97 518.71 -130.32 517.9 -140.38 514.38 C-141.96 513.86 -143.56 513.35 -145.15 512.84 C-151.29 510.86 -157.41 508.85 -163.38 506.38 C-163.38 505.71 -163.38 505.06 -163.38 504.38 C-164.23 504.13 -165.08 503.88 -165.96 503.62 C-169.67 502.27 -172.71 500.53 -176.06 498.44 C-177.74 497.4 -177.74 497.4 -179.45 496.35 C-183.65 493.52 -183.65 493.52 -185.38 491.38 C-185.38 490.71 -185.38 490.06 -185.38 489.38 C-185.96 489.12 -186.54 488.86 -187.13 488.6 C-194.21 484.73 -201.82 476.05 -204.38 468.38 C-204.85 467.98 -205.32 467.59 -205.81 467.19 C-209.62 462.77 -209.77 455.94 -209.38 450.38 C-208.82 447.66 -208.12 445.05 -207.38 442.38 C-206.72 442.38 -206.06 442.38 -205.38 442.38 C-205.12 441.79 -204.86 441.2 -204.6 440.6 C-201.87 435.64 -196.96 431.49 -191.5 429.88 C-184.38 428.6 -177.58 429.62 -171.38 433.38 C-171.38 434.04 -171.38 434.69 -171.38 435.38 C-170.77 435.64 -170.17 435.91 -169.55 436.18 C-167.3 437.42 -166.12 438.53 -164.5 440.5 C-163.99 441.12 -163.48 441.73 -162.95 442.37 C-161.35 444.4 -159.83 446.47 -158.31 448.56 C-155.97 451.74 -153.56 454.01 -150.38 456.38 C-149.57 457.2 -148.77 458.02 -147.94 458.88 C-137.78 468.78 -122.58 474.22 -108.54 474.43 C-100.84 474.07 -93.7 472.79 -86.38 470.38 C-86.38 469.71 -86.38 469.06 -86.38 468.38 C-85 467.42 -83.57 466.54 -82.12 465.69 C-77.8 462.86 -75.27 460.21 -73.38 455.38 C-73.04 454.56 -72.7 453.74 -72.35 452.9 C-68.55 442.35 -68.88 432.14 -69.06 421.06 C-69.08 419.06 -69.1 417.07 -69.12 415.07 C-69.16 410.1 -69.24 405.13 -69.33 400.16 C-69.37 397.54 -69.41 394.91 -69.44 392.29 C-69.49 388.56 -69.56 384.82 -69.64 381.09 C-69.69 379.12 -69.72 377.15 -69.75 375.17 C-69.9 364.8 -69.9 364.8 -74.75 355.93 C-76.24 354.68 -77.81 353.53 -79.38 352.38 C-79.93 351.75 -80.49 351.13 -81.06 350.49 C-84.18 347.64 -87.63 346.09 -91.44 344.31 C-92.87 343.64 -94.3 342.96 -95.72 342.28 C-96.35 341.98 -96.98 341.69 -97.63 341.39 C-99.55 340.27 -100.83 338.96 -102.38 337.38 C-105.59 335.35 -108.87 333.43 -112.15 331.51 C-115.34 329.4 -117.73 327.13 -120.38 324.38 C-121.81 323.24 -123.27 322.14 -124.75 321.06 C-129.27 317.6 -132.75 313.73 -136.38 309.38 C-137.7 307.89 -139.04 306.41 -140.38 304.94 C-160.72 282.05 -175.71 254.26 -181.77 224.1 C-182.32 221.34 -182.32 221.34 -183.38 218.62 C-188.87 200.71 -187.08 179.03 -185.06 160.69 C-184.94 159.6 -184.83 158.51 -184.71 157.39 C-184.04 151.87 -183.07 146.83 -181.17 141.6 C-180.3 139.16 -179.6 136.71 -178.91 134.22 C-178.67 133.34 -178.42 132.46 -178.17 131.56 C-177.68 129.77 -177.2 127.98 -176.71 126.19 C-175.08 120.31 -173.01 114.88 -170.38 109.38 C-170.06 108.71 -169.74 108.04 -169.42 107.35 C-165.27 98.65 -160.76 90.38 -155.38 82.38 C-154.86 81.57 -154.35 80.77 -153.82 79.95 C-150.67 75.08 -147.24 70.69 -143.38 66.38 C-142.21 65.04 -141.04 63.71 -139.88 62.38 C-139.29 61.71 -138.7 61.04 -138.09 60.35 C-137 59.09 -135.93 57.82 -134.88 56.52 C-131.69 52.61 -128.34 49.7 -124.24 46.77 C-122.19 45.31 -122.19 45.31 -120 42.94 C-116.83 39.84 -113.35 37.49 -109.68 35.02 C-107.43 33.52 -107.43 33.52 -105.96 31.91 C-104.29 30.29 -102.68 29.25 -100.65 28.11 C-99.95 27.72 -99.25 27.32 -98.52 26.91 C-97.79 26.51 -97.06 26.1 -96.31 25.69 C-95.58 25.27 -94.85 24.86 -94.09 24.43 C-88.63 21.38 -88.63 21.38 -86.38 21.38 C-86.38 20.72 -86.38 20.06 -86.38 19.38 C-85.2 18.94 -85.2 18.94 -84.01 18.5 C-81.08 17.43 -78.15 16.35 -75.22 15.27 C-73.35 14.57 -71.47 13.88 -69.59 13.19 C-62.52 10.62 -62.52 10.62 -55.59 7.68 C-51.45 6 -47.32 5.15 -42.94 4.31 C-42.15 4.15 -41.36 3.99 -40.55 3.83 C-27.07 1.19 -13.72 -0.04 0 0 Z " fill="#CBCBCB" transform="translate(373.375,94.625)"/>
<path d="M0 0 C0.77 0.02 1.53 0.04 2.32 0.07 C13.5 1.14 22.9 8.93 32 15 C32 15.66 32 16.32 32 17 C32.81 17.38 32.81 17.38 33.63 17.76 C36.53 19.27 39.21 21.01 41.94 22.81 C42.96 23.48 43.98 24.15 45.03 24.83 C48.01 27.01 50.43 29.37 53 32 C54.54 33.28 56.1 34.53 57.69 35.75 C63.93 40.68 69.94 45.87 75.5 51.56 C77.86 53.86 80.28 55.8 82.88 57.81 C86.84 60.94 90.12 64.18 93.34 68.05 C95.04 70.04 96.82 71.86 98.69 73.69 C100.67 75.63 102.39 77.5 104.12 79.69 C105.92 82.07 105.92 82.07 108.31 83.81 C111.27 86.22 113.59 88.85 116.06 91.75 C118.09 94.11 120.2 96.39 122.31 98.69 C129.4 106.55 135.81 114.76 141 124 C141.83 125.13 142.66 126.26 143.5 127.38 C151.79 140.74 151.95 160.22 148.69 175.12 C148.16 177.09 147.6 179.05 147 181 C146.59 182.35 146.59 182.35 146.17 183.72 C145.25 186.57 144.34 189.32 143 192 C142.34 192 141.68 192 141 192 C140.74 192.9 140.48 193.79 140.21 194.72 C139.02 197.95 137.82 199.87 135.62 202.5 C134.91 203.36 134.19 204.22 133.45 205.11 C132.64 206.07 131.83 207.02 131 208 C130.1 209.08 129.2 210.15 128.3 211.23 C122.34 218.3 116.17 225.14 109.81 231.85 C107.24 234.56 104.74 237.27 102.4 240.18 C100.1 242.88 97.82 244.92 95 247.06 C91.41 249.86 88.18 252.74 85 256 C82.98 257.79 80.95 259.55 78.91 261.31 C77.38 262.66 75.93 264.1 74.5 265.56 C65.85 274 65.85 274 62 274 C61.67 274.99 61.34 275.98 61 277 C59.5 278.29 59.5 278.29 57.58 279.56 C56.88 280.03 56.19 280.5 55.47 280.98 C54.74 281.46 54 281.94 53.25 282.44 C51.82 283.39 50.38 284.35 48.95 285.31 C47.92 286 47.92 286 46.88 286.7 C44.49 288.35 42.26 290.18 40 292 C38.27 293.15 36.52 294.28 34.75 295.38 C31.24 297.58 27.78 299.83 24.38 302.19 C15.71 308.01 7.45 310.84 -3 310 C-9.07 308.77 -13.71 306.58 -18 302 C-22.35 295.4 -22.83 288.72 -22 281 C-20.28 273.77 -14.76 269.35 -9 265 C-8.34 265 -7.68 265 -7 265 C-7 264.34 -7 263.68 -7 263 C-5.02 261.59 -5.02 261.59 -2.25 259.94 C3.12 256.62 8.12 252.97 13.13 249.14 C16.35 246.74 19.66 244.53 23.06 242.39 C25.09 241.02 25.09 241.02 26.88 239.09 C29.36 236.65 31.99 234.86 34.88 232.94 C46.56 224.98 57.35 216.15 67.56 206.38 C68.87 205.12 70.2 203.87 71.53 202.63 C82.68 191.92 91.6 178.92 92.2 163 C92.56 142.32 86.17 126.65 71.63 111.54 C70.76 110.7 69.89 109.86 69 109 C68.51 108.52 68.01 108.04 67.5 107.55 C59.4 99.77 51.05 92.65 42 86 C40.96 85.23 39.92 84.47 38.85 83.68 C35.27 81.06 31.69 78.46 28 76 C28 75.34 28 74.68 28 74 C26.95 73.62 26.95 73.62 25.88 73.24 C22.64 71.84 19.92 70.1 17 68.12 C15.99 67.45 14.98 66.77 13.94 66.07 C12.08 64.76 10.26 63.4 8.49 61.97 C4.94 59.16 1.09 56.92 -2.77 54.59 C-3.51 54.06 -4.24 53.54 -5 53 C-5 52.34 -5 51.68 -5 51 C-5.82 50.62 -5.82 50.62 -6.66 50.24 C-9.45 48.76 -11.93 47.03 -14.5 45.19 C-15.44 44.52 -16.38 43.85 -17.34 43.17 C-20.01 40.99 -21.93 38.74 -24 36 C-24.56 35.46 -25.11 34.93 -25.69 34.38 C-28.9 31.01 -28.28 26.25 -28.2 21.91 C-27.81 16.13 -26.92 12 -22.82 7.73 C-15.67 1.69 -9.4 -0.69 0 0 Z " fill="#CCCCCC" transform="translate(557,123)"/>
<path d="M0 0 C4.42 3.45 8.13 7.36 9 13.06 C9 14.03 9 15 9 16 C9.66 16 10.32 16 11 16 C11.7 24.35 9.61 29.21 4.94 36 C1 40.45 -4.15 43.64 -9 47 C-9.85 47.6 -10.71 48.2 -11.59 48.82 C-13.24 49.98 -14.89 51.14 -16.54 52.29 C-18.17 53.42 -19.8 54.57 -21.43 55.71 C-25.96 58.91 -30.54 62.02 -35.19 65.06 C-38.49 67.25 -41.62 69.42 -44.56 72.06 C-49.57 76.56 -55.6 80.87 -62 83 C-62.5 84.49 -62.5 84.49 -63 86 C-65.4 88.01 -65.4 88.01 -68.38 90.12 C-69.35 90.83 -70.33 91.53 -71.34 92.26 C-74 94 -74 94 -77 95 C-77.67 96.33 -78.34 97.66 -79 99 C-80.92 100.86 -80.92 100.86 -83.19 102.75 C-86.97 106.01 -90.28 109.42 -93.49 113.24 C-95 115 -95 115 -96.51 116.4 C-101.41 121.65 -104.35 129.38 -107 136 C-107.66 136 -108.32 136 -109 136 C-110.88 146.58 -112.27 156.52 -109.44 167.03 C-109 169 -109 169 -109 173 C-108.34 173 -107.68 173 -107 173 C-106.79 173.52 -106.58 174.04 -106.37 174.58 C-102.02 184.98 -96.24 193.34 -88 201 C-87.2 201.8 -86.4 202.6 -85.57 203.43 C-72.99 216 -58.75 226.16 -44 236 C-44 236.66 -44 237.32 -44 238 C-43.46 238.25 -42.92 238.5 -42.37 238.76 C-39.46 240.28 -36.79 242.05 -34.06 243.88 C-32.53 244.89 -32.53 244.89 -30.97 245.93 C-28 248 -28 248 -25.53 250.01 C-21.66 253.06 -17.4 255.41 -13.16 257.9 C-9.99 260.01 -7.6 262.25 -5 265 C-4.37 265.59 -3.74 266.17 -3.09 266.77 C2.24 271.75 5.07 276.37 5.44 283.81 C5.19 290.19 3.69 296.17 -0.8 300.89 C-7 305.85 -13.46 307.5 -21.32 307.32 C-33.04 305.93 -43.11 298.81 -52.31 291.97 C-54.67 290.24 -57.05 288.6 -59.5 287 C-67.04 282.02 -74.25 276.78 -80.96 270.72 C-83.27 268.77 -85.69 267.08 -88.19 265.38 C-91.87 262.85 -94.92 260.24 -98 257 C-100.13 255.16 -102.27 253.35 -104.43 251.55 C-104.95 251.04 -105.46 250.53 -106 250 C-106 249.34 -106 248.68 -106 248 C-106.58 247.73 -107.16 247.47 -107.76 247.2 C-114.04 243.84 -118.85 238.21 -123.41 232.85 C-126.17 229.64 -129.23 226.73 -132.31 223.81 C-134 222 -134 222 -134 220 C-134.58 219.77 -135.16 219.53 -135.76 219.29 C-138.53 217.69 -139.94 215.86 -141.88 213.31 C-144.23 210.27 -146.59 207.27 -149.12 204.38 C-150.09 203.25 -151.04 202.13 -152 201 C-152.49 200.42 -152.98 199.85 -153.49 199.25 C-163.62 186.66 -167.59 171.63 -167.5 155.75 C-167.5 154.56 -167.49 153.38 -167.49 152.15 C-167.31 142.86 -166.03 135.4 -162 127 C-161.62 126.17 -161.23 125.34 -160.84 124.49 C-158.06 119.08 -154.4 114.25 -150.77 109.38 C-149.46 107.62 -148.22 105.82 -147 104 C-146.34 104 -145.68 104 -145 104 C-145 103.34 -145 102.68 -145 102 C-144.34 102 -143.68 102 -143 102 C-142.75 101.43 -142.5 100.87 -142.25 100.28 C-140.8 97.64 -139.1 95.71 -137.06 93.5 C-135.86 92.18 -135.86 92.18 -134.62 90.84 C-133.33 89.43 -133.33 89.43 -132 88 C-130.65 86.52 -129.3 85.05 -127.94 83.57 C-127.02 82.56 -126.1 81.56 -125.17 80.55 C-122.85 78.03 -120.54 75.49 -118.25 72.93 C-117.39 71.97 -116.52 71 -115.62 70 C-114.85 69.13 -114.08 68.27 -113.29 67.38 C-111 65 -108.58 63.04 -106 61 C-105.42 60.24 -104.84 59.47 -104.25 58.69 C-101.55 55.47 -98.5 53.21 -95.16 50.69 C-92.55 48.65 -90.31 46.37 -88 44 C-86.01 42.23 -83.99 40.48 -81.96 38.75 C-80.62 37.55 -79.31 36.3 -78.04 35.02 C-75.92 32.93 -73.72 31.09 -71.38 29.25 C-70.6 28.64 -69.82 28.02 -69.02 27.39 C-67 26 -67 26 -65 26 C-64.5 24.51 -64.5 24.51 -64 23 C-61.88 21.33 -59.79 19.81 -57.56 18.31 C-56.96 17.9 -56.36 17.48 -55.75 17.05 C-51.27 14 -51.27 14 -49 14 C-48.5 12.51 -48.5 12.51 -48 11 C-46.58 9.8 -46.58 9.8 -44.75 8.66 C-44.09 8.24 -43.42 7.82 -42.73 7.38 C-42.02 6.95 -41.3 6.51 -40.56 6.06 C-39.83 5.62 -39.11 5.17 -38.35 4.71 C-25.83 -2.82 -14.13 -6.14 0 0 Z " fill="#CBCBCB" transform="translate(205,126)"/>
<path d="M0 0 C0.74 0.37 1.47 0.74 2.23 1.12 C2.82 1.41 3.4 1.7 4 2 C4 2.66 4 3.32 4 4 C4.58 4.27 5.15 4.55 5.75 4.83 C11.97 8.07 16.36 11.98 20 18 C20.8 18.87 21.61 19.73 22.44 20.62 C29.27 28.67 33.55 42.52 33 53 C33.33 53.33 33.66 53.66 34 54 C34.1 56 34.13 58 34.12 60 C34.13 61.09 34.13 62.19 34.13 63.31 C34 66 34 66 33 67 C33.03 67.84 33.07 68.68 33.1 69.55 C32.98 73.84 31.84 77.25 30.38 81.25 C30.1 82 29.83 82.76 29.54 83.54 C24.27 97.61 14.61 110.93 1 118 C-2.56 119.38 -2.56 119.38 -5 120 C-5 120.66 -5 121.32 -5 122 C-7.04 122.65 -9.08 123.3 -11.12 123.94 C-12.26 124.3 -13.4 124.66 -14.57 125.03 C-30.38 129.51 -48.88 128.29 -64 122 C-64 121.34 -64 120.68 -64 120 C-64.55 119.9 -65.1 119.8 -65.67 119.7 C-73.74 117.29 -80.43 111.08 -86 105 C-86.94 104.15 -86.94 104.15 -87.91 103.27 C-90.7 100.24 -92.57 96.91 -94.56 93.31 C-94.96 92.6 -95.36 91.88 -95.77 91.14 C-104.38 75.35 -105.64 56.03 -100.97 38.67 C-95.83 21.87 -83.71 7.55 -68.25 -0.69 C-46.52 -10.97 -21.43 -11.09 0 0 Z " fill="#CCCCCC" transform="translate(407,219)"/>
<path d="M0 0 C6.97 3.25 14 8.42 16.74 15.91 C18.26 23.67 18.32 31.27 14.17 38.12 C12.42 40.24 12.42 40.24 10.61 42 C10.01 42.6 9.41 43.19 8.79 43.8 C7.17 45.12 7.17 45.12 5.17 45.12 C5.17 45.78 5.17 46.44 5.17 47.12 C-2.8 50.36 -10.2 51.68 -18.45 48.62 C-19.57 48.13 -20.68 47.63 -21.83 47.12 C-21.83 46.47 -21.83 45.81 -21.83 45.12 C-22.38 44.9 -22.94 44.67 -23.52 44.44 C-28.06 41.86 -31.46 38.27 -33.32 33.33 C-35.18 25.3 -34.62 17.54 -30.52 10.35 C-22.96 0.42 -12.11 -3.75 0 0 Z " fill="#CBCBCB" transform="translate(380.828125,21.875)"/>
<path d="M0 0 C1.82 1.11 1.82 1.11 3.56 2.38 C4.2 2.82 4.84 3.27 5.49 3.73 C9.69 6.98 12.02 10.23 13.56 15.38 C13.84 18.14 13.98 20.62 13.94 23.38 C13.95 24.05 13.96 24.72 13.97 25.41 C13.94 30.37 12.97 34.05 10.56 38.38 C7.97 40.77 7.97 40.77 5.06 42.75 C4.1 43.42 3.14 44.09 2.16 44.77 C-4.08 48.62 -11.37 47.91 -18.44 47.38 C-21.53 46.5 -23.84 45.25 -26.44 43.38 C-28.05 42.32 -28.05 42.32 -29.69 41.25 C-34.53 36.19 -36.62 30.29 -36.88 23.31 C-36.49 15.85 -35.03 10.42 -29.38 5.31 C-25.8 2.38 -25.8 2.38 -23.44 2.38 C-23.44 1.71 -23.44 1.06 -23.44 0.38 C-16.49 -2.9 -7.04 -3.31 0 0 Z " fill="#CCCCCC" transform="translate(100.4375,397.625)"/>
<path d="M0 0 C1.29 -0.01 2.58 -0.01 3.91 -0.02 C7.25 0.23 9.51 0.8 12.5 2.25 C12.5 2.91 12.5 3.57 12.5 4.25 C13.04 4.46 13.57 4.66 14.12 4.88 C19.2 7.81 22.77 11.6 24.5 17.25 C25.27 25.24 25.84 33.73 20.5 40.25 C15.6 45.39 11.26 48.89 4.01 49.59 C-3.33 49.66 -9.34 49.69 -15.5 45.25 C-16.57 44.57 -17.64 43.89 -18.75 43.19 C-23.34 39.11 -24.99 32.74 -25.85 26.85 C-26.11 20.41 -24.99 14.02 -20.59 9.13 C-15.18 4.25 -15.18 4.25 -12.5 4.25 C-12.5 3.59 -12.5 2.93 -12.5 2.25 C-8.25 0.19 -4.7 -0.02 0 0 Z " fill="#CCCCCC" transform="translate(655.5,395.75)"/>
</svg>
